<svg width="264" height="57" viewBox="0 0 264 57" fill="none" xmlns="http://www.w3.org/2000/svg">
<path d="M87.2384 43.5982C82.7318 43.5982 79.2918 42.3449 76.9184 39.8382C74.5718 37.3316 73.3984 33.7716 73.3984 29.1582C73.3984 26.8649 73.7584 24.8249 74.4784 23.0382C75.1984 21.2249 76.1851 19.7049 77.4384 18.4782C78.6918 17.2249 80.1851 16.2782 81.9184 15.6382C83.6518 14.9982 85.5318 14.6782 87.5584 14.6782C88.7318 14.6782 89.7984 14.7716 90.7584 14.9582C91.7184 15.1182 92.5584 15.3182 93.2784 15.5582C93.9984 15.7716 94.5984 15.9982 95.0784 16.2382C95.5584 16.4782 95.9051 16.6649 96.1184 16.7982L94.3184 21.8382C93.4651 21.3849 92.4651 20.9982 91.3184 20.6782C90.1984 20.3582 88.9184 20.1982 87.4784 20.1982C86.5184 20.1982 85.5718 20.3582 84.6384 20.6782C83.7318 20.9982 82.9184 21.5182 82.1984 22.2382C81.5051 22.9316 80.9451 23.8382 80.5184 24.9582C80.0918 26.0782 79.8784 27.4382 79.8784 29.0382C79.8784 30.3182 80.0118 31.5182 80.2784 32.6382C80.5718 33.7316 81.0251 34.6782 81.6384 35.4782C82.2784 36.2782 83.1051 36.9182 84.1184 37.3982C85.1318 37.8516 86.3584 38.0782 87.7984 38.0782C88.7051 38.0782 89.5184 38.0249 90.2384 37.9182C90.9584 37.8116 91.5984 37.6916 92.1584 37.5582C92.7184 37.3982 93.2118 37.2249 93.6384 37.0382C94.0651 36.8516 94.4518 36.6782 94.7984 36.5182L96.5184 41.5182C95.6384 42.0516 94.3984 42.5316 92.7984 42.9582C91.1984 43.3849 89.3451 43.5982 87.2384 43.5982ZM119.347 32.4782C119.347 34.1316 119.107 35.6516 118.627 37.0382C118.147 38.3982 117.454 39.5716 116.547 40.5582C115.641 41.5182 114.547 42.2649 113.267 42.7982C112.014 43.3316 110.601 43.5982 109.027 43.5982C107.481 43.5982 106.067 43.3316 104.787 42.7982C103.534 42.2649 102.454 41.5182 101.547 40.5582C100.641 39.5716 99.9339 38.3982 99.4272 37.0382C98.9205 35.6516 98.6672 34.1316 98.6672 32.4782C98.6672 30.8249 98.9205 29.3182 99.4272 27.9582C99.9605 26.5982 100.681 25.4382 101.587 24.4782C102.521 23.5182 103.614 22.7716 104.867 22.2382C106.147 21.7049 107.534 21.4382 109.027 21.4382C110.547 21.4382 111.934 21.7049 113.187 22.2382C114.467 22.7716 115.561 23.5182 116.467 24.4782C117.374 25.4382 118.081 26.5982 118.587 27.9582C119.094 29.3182 119.347 30.8249 119.347 32.4782ZM113.267 32.4782C113.267 30.6382 112.894 29.1982 112.147 28.1582C111.427 27.0916 110.387 26.5582 109.027 26.5582C107.667 26.5582 106.614 27.0916 105.867 28.1582C105.121 29.1982 104.747 30.6382 104.747 32.4782C104.747 34.3182 105.121 35.7849 105.867 36.8782C106.614 37.9449 107.667 38.4782 109.027 38.4782C110.387 38.4782 111.427 37.9449 112.147 36.8782C112.894 35.7849 113.267 34.3182 113.267 32.4782ZM129.044 32.3582C129.044 34.1982 129.457 35.6782 130.284 36.7982C131.111 37.9182 132.337 38.4782 133.964 38.4782C134.497 38.4782 134.991 38.4649 135.444 38.4382C135.897 38.3849 136.271 38.3316 136.564 38.2782V27.4382C136.191 27.1982 135.697 26.9982 135.084 26.8382C134.497 26.6782 133.897 26.5982 133.284 26.5982C130.457 26.5982 129.044 28.5182 129.044 32.3582ZM142.524 42.3582C141.991 42.5182 141.377 42.6782 140.684 42.8382C139.991 42.9716 139.257 43.0916 138.484 43.1982C137.737 43.3049 136.964 43.3849 136.164 43.4382C135.391 43.5182 134.644 43.5582 133.924 43.5582C132.191 43.5582 130.644 43.3049 129.284 42.7982C127.924 42.2916 126.777 41.5716 125.844 40.6382C124.911 39.6782 124.191 38.5316 123.684 37.1982C123.204 35.8382 122.964 34.3182 122.964 32.6382C122.964 30.9316 123.177 29.3982 123.604 28.0382C124.031 26.6516 124.644 25.4782 125.444 24.5182C126.244 23.5582 127.217 22.8249 128.364 22.3182C129.537 21.8116 130.871 21.5582 132.364 21.5582C133.191 21.5582 133.924 21.6382 134.564 21.7982C135.231 21.9582 135.897 22.1849 136.564 22.4782V12.9582L142.524 11.9982V42.3582ZM156.145 38.8782C156.731 38.8782 157.291 38.8649 157.825 38.8382C158.358 38.8116 158.785 38.7716 159.105 38.7182V34.1982C158.865 34.1449 158.505 34.0916 158.025 34.0382C157.545 33.9849 157.105 33.9582 156.705 33.9582C156.145 33.9582 155.611 33.9982 155.105 34.0782C154.625 34.1316 154.198 34.2516 153.825 34.4382C153.451 34.6249 153.158 34.8782 152.945 35.1982C152.731 35.5182 152.625 35.9182 152.625 36.3982C152.625 37.3316 152.931 37.9849 153.545 38.3582C154.185 38.7049 155.051 38.8782 156.145 38.8782ZM155.665 21.4382C157.425 21.4382 158.891 21.6382 160.065 22.0382C161.238 22.4382 162.171 23.0116 162.865 23.7582C163.585 24.5049 164.091 25.4116 164.385 26.4782C164.678 27.5449 164.825 28.7316 164.825 30.0382V42.4382C163.971 42.6249 162.785 42.8382 161.265 43.0782C159.745 43.3449 157.905 43.4782 155.745 43.4782C154.385 43.4782 153.145 43.3582 152.025 43.1182C150.931 42.8782 149.985 42.4916 149.185 41.9582C148.385 41.3982 147.771 40.6782 147.345 39.7982C146.918 38.9182 146.705 37.8382 146.705 36.5582C146.705 35.3316 146.945 34.2916 147.425 33.4382C147.931 32.5849 148.598 31.9049 149.425 31.3982C150.251 30.8916 151.198 30.5316 152.265 30.3182C153.331 30.0782 154.438 29.9582 155.585 29.9582C156.358 29.9582 157.038 29.9982 157.625 30.0782C158.238 30.1316 158.731 30.2116 159.105 30.3182V29.7582C159.105 28.7449 158.798 27.9316 158.185 27.3182C157.571 26.7049 156.505 26.3982 154.985 26.3982C153.971 26.3982 152.971 26.4782 151.985 26.6382C150.998 26.7716 150.145 26.9716 149.425 27.2382L148.665 22.4382C149.011 22.3316 149.438 22.2249 149.945 22.1182C150.478 21.9849 151.051 21.8782 151.665 21.7982C152.278 21.6916 152.918 21.6116 153.585 21.5582C154.278 21.4782 154.971 21.4382 155.665 21.4382ZM178.614 43.4382C176.881 43.4116 175.467 43.2249 174.374 42.8782C173.307 42.5316 172.454 42.0516 171.814 41.4382C171.201 40.7982 170.774 40.0382 170.534 39.1582C170.321 38.2516 170.214 37.2382 170.214 36.1182V12.9582L176.174 11.9982V34.9182C176.174 35.4516 176.214 35.9316 176.294 36.3582C176.374 36.7849 176.521 37.1449 176.734 37.4382C176.974 37.7316 177.307 37.9716 177.734 38.1582C178.161 38.3449 178.734 38.4649 179.454 38.5182L178.614 43.4382ZM188.83 43.0382H182.87V21.9982H188.83V43.0382ZM189.39 15.9182C189.39 17.0116 189.03 17.8782 188.31 18.5182C187.617 19.1316 186.79 19.4382 185.83 19.4382C184.87 19.4382 184.03 19.1316 183.31 18.5182C182.617 17.8782 182.27 17.0116 182.27 15.9182C182.27 14.8249 182.617 13.9716 183.31 13.3582C184.03 12.7182 184.87 12.3982 185.83 12.3982C186.79 12.3982 187.617 12.7182 188.31 13.3582C189.03 13.9716 189.39 14.8249 189.39 15.9182ZM194.433 22.7182C195.446 22.4249 196.753 22.1582 198.353 21.9182C199.953 21.6516 201.633 21.5182 203.393 21.5182C205.179 21.5182 206.659 21.7582 207.833 22.2382C209.033 22.6916 209.979 23.3449 210.673 24.1982C211.366 25.0516 211.859 26.0649 212.153 27.2382C212.446 28.4116 212.593 29.7182 212.593 31.1582V43.0382H206.633V31.8782C206.633 29.9582 206.379 28.5982 205.873 27.7982C205.366 26.9982 204.419 26.5982 203.033 26.5982C202.606 26.5982 202.153 26.6249 201.673 26.6782C201.193 26.7049 200.766 26.7449 200.393 26.7982V43.0382H194.433V22.7182ZM223.948 29.5982C224.534 28.9582 225.134 28.2916 225.747 27.5982C226.388 26.9049 227.001 26.2249 227.588 25.5582C228.174 24.8649 228.721 24.2116 229.228 23.5982C229.761 22.9849 230.214 22.4516 230.588 21.9982H237.668C236.254 23.6249 234.868 25.1849 233.508 26.6782C232.174 28.1449 230.708 29.6649 229.108 31.2382C229.908 31.9582 230.734 32.8249 231.588 33.8382C232.441 34.8249 233.268 35.8516 234.068 36.9182C234.868 37.9849 235.601 39.0516 236.268 40.1182C236.934 41.1849 237.494 42.1582 237.948 43.0382H231.108C230.681 42.3449 230.188 41.5849 229.628 40.7582C229.094 39.9049 228.521 39.0649 227.908 38.2382C227.294 37.3849 226.641 36.5716 225.948 35.7982C225.281 35.0249 224.614 34.3716 223.948 33.8382V43.0382H217.988V12.9582L223.948 11.9982V29.5982ZM247.192 38.7582C248.285 38.7582 249.058 38.6516 249.512 38.4382C249.965 38.2249 250.192 37.8116 250.192 37.1982C250.192 36.7182 249.898 36.3049 249.312 35.9582C248.725 35.5849 247.832 35.1716 246.632 34.7182C245.698 34.3716 244.845 34.0116 244.072 33.6382C243.325 33.2649 242.685 32.8249 242.152 32.3182C241.618 31.7849 241.205 31.1582 240.912 30.4382C240.618 29.7182 240.472 28.8516 240.472 27.8382C240.472 25.8649 241.205 24.3049 242.672 23.1582C244.138 22.0116 246.152 21.4382 248.712 21.4382C249.992 21.4382 251.218 21.5582 252.392 21.7982C253.565 22.0116 254.498 22.2516 255.192 22.5182L254.152 27.1582C253.458 26.9182 252.698 26.7049 251.872 26.5182C251.072 26.3316 250.165 26.2382 249.152 26.2382C247.285 26.2382 246.352 26.7582 246.352 27.7982C246.352 28.0382 246.392 28.2516 246.472 28.4382C246.552 28.6249 246.712 28.8116 246.952 28.9982C247.192 29.1582 247.512 29.3449 247.912 29.5582C248.338 29.7449 248.872 29.9582 249.512 30.1982C250.818 30.6782 251.898 31.1582 252.752 31.6382C253.605 32.0916 254.272 32.5982 254.752 33.1582C255.258 33.6916 255.605 34.2916 255.792 34.9582C256.005 35.6249 256.112 36.3982 256.112 37.2782C256.112 39.3582 255.325 40.9316 253.752 41.9982C252.205 43.0649 250.005 43.5982 247.152 43.5982C245.285 43.5982 243.725 43.4382 242.472 43.1182C241.245 42.7982 240.392 42.5316 239.912 42.3182L240.912 37.4782C241.925 37.8782 242.965 38.1982 244.032 38.4382C245.098 38.6516 246.152 38.7582 247.192 38.7582Z" fill="black"/>
<g clip-path="url(#clip0)">
<path d="M36.2727 20.5889C42.9082 27.2312 42.8171 37.8805 36.3127 44.421C36.3005 44.4343 36.2861 44.4488 36.2727 44.4621L28.8096 51.9253C22.2271 58.5077 11.5178 58.5068 4.93636 51.9253C-1.6461 45.3439 -1.6461 34.6334 4.93636 28.052L9.05731 23.9311C10.1501 22.8383 12.0321 23.5646 12.0885 25.109C12.1605 27.0772 12.5135 29.0546 13.1647 30.9641C13.3853 31.6107 13.2277 32.3259 12.7446 32.809L11.2911 34.2625C8.17861 37.375 8.08099 42.4431 11.1629 45.586C14.2752 48.76 19.3908 48.7789 22.527 45.6427L29.9901 38.1806C33.121 35.0498 33.1079 29.9892 29.9901 26.8715C29.5791 26.4612 29.1651 26.1425 28.8417 25.9198C28.6129 25.7627 28.424 25.5543 28.29 25.3112C28.1561 25.0682 28.0808 24.7972 28.0701 24.5198C28.0262 23.3463 28.442 22.1369 29.3693 21.2096L31.7075 18.8713C32.3207 18.2581 33.2826 18.1828 33.9936 18.679C34.8078 19.2476 35.5705 19.8867 36.2727 20.5889ZM51.9248 4.93602C45.3434 -1.64555 34.6341 -1.64644 28.0516 4.93602L20.5884 12.3992C20.5751 12.4125 20.5607 12.4269 20.5485 12.4403C14.0442 18.9808 13.953 29.6301 20.5884 36.2724C21.2906 36.9746 22.0533 37.6137 22.8675 38.1822C23.5785 38.6784 24.5405 38.603 25.1535 37.9899L27.4918 35.6516C28.4191 34.7242 28.8349 33.5149 28.7909 32.3414C28.7803 32.064 28.705 31.793 28.571 31.5499C28.4371 31.3069 28.2482 31.0985 28.0194 30.9414C27.696 30.7187 27.282 30.3999 26.8709 29.9897C23.7532 26.8719 23.7401 21.8114 26.8709 18.6806L34.3341 11.2185C37.4703 8.08232 42.5858 8.1012 45.6982 11.2752C48.7801 14.4181 48.6826 19.4862 45.5699 22.5987L44.1165 24.0522C43.6334 24.5353 43.4758 25.2505 43.6964 25.8971C44.3476 27.8066 44.7005 29.784 44.7725 31.7522C44.829 33.2966 46.7109 34.0229 47.8038 32.9301L51.9247 28.8091C58.5073 22.2279 58.5073 11.5174 51.9248 4.93602Z" fill="#1E639D"/>
</g>
<defs>
<clipPath id="clip0">
<rect width="56.8622" height="56.8622" fill="white"/>
</clipPath>
</defs>
</svg>
