<svg width="1080" height="1080" viewBox="0 0 1080 1080" fill="none" xmlns="http://www.w3.org/2000/svg">
<rect width="1080" height="1080" rx="200" fill="#1E639D"/>
<path fill-rule="evenodd" clip-rule="evenodd" d="M329 268C290.34 268 259 299.34 259 338V641.277C259 692.796 291.465 736.731 337.054 753.742C316.151 732.146 303.288 702.722 303.288 670.293V367.016C303.288 328.356 334.628 297.016 373.288 297.016H731.565C735.103 297.016 738.574 297.299 741.958 297.843C730.391 279.889 710.222 268 687.277 268H329Z" fill="white"/>
<path fill-rule="evenodd" clip-rule="evenodd" d="M398 318C359.34 318 328 349.34 328 388V691.277C328 757.551 381.726 811.277 448 811.277H736.277C783.221 811.277 821.277 773.221 821.277 726.277V383C821.277 347.101 792.176 318 756.277 318H398ZM534.786 542.54L478.886 566.07V582.19L534.786 605.72L539.856 589.99L499.036 574.13L539.856 558.27L534.786 542.54ZM543.023 637.05H562.913L606.333 511.21H586.703L543.023 637.05ZM614.461 605.72L670.361 582.19V566.07L614.461 542.54L609.391 558.27L650.211 574.13L609.391 589.99L614.461 605.72Z" fill="white"/>
</svg>
